<svg id="Слой_1" data-name="Слой 1" xmlns="http://www.w3.org/2000/svg" viewBox="0 0 224.37 224.37"><defs><style>.cls-1{fill:#fff;}</style></defs><path class="cls-1" d="M135.72,29.93c-10.9-1.72-19.19,4.55-23.54,9-4.34-4.42-12.63-10.69-23.53-9-14.46,2.28-21.21,14.59-20.21,25l.07.93c.53,7,1.43,18.81,40.51,47.92l3.16,2.46,3.14-2.44c39.12-29.12,40-40.9,40.54-47.94l.08-.93C156.93,44.52,150.18,32.21,135.72,29.93Zm12.06,24.24q0,.51-.09,1.08c-.39,5.19-1.11,14.76-35.5,40.68C77.8,70,77.07,60.44,76.68,55.25q0-.57-.09-1.08C76.08,48.82,79.25,39.71,89.92,38a15.5,15.5,0,0,1,2.32-.18c9.73,0,16.5,9.58,16.56,9.68l3.37,4.89,3.39-4.88c.08-.11,7.91-11.25,18.89-9.51C145.12,39.71,148.29,48.82,147.78,54.17Z"/><path class="cls-1" d="M135.72,117.79c-10.9-1.72-19.19,4.55-23.54,9-4.34-4.43-12.63-10.69-23.53-9-14.46,2.28-21.21,14.59-20.21,25l.07.92c.53,7,1.43,18.82,40.51,47.93l3.16,2.45,3.14-2.43c39.12-29.13,40-40.91,40.54-47.95l.08-.92C156.93,132.38,150.18,120.07,135.72,117.79ZM147.78,142c0,.35-.06.71-.09,1.09-.39,5.18-1.11,14.76-35.5,40.67-34.39-25.9-35.12-35.49-35.51-40.67,0-.38-.06-.74-.09-1.09a15.16,15.16,0,0,1,13.33-16.14,15.5,15.5,0,0,1,2.32-.18c9.73,0,16.5,9.58,16.56,9.67l3.37,4.9,3.39-4.88c.08-.12,7.91-11.23,18.89-9.51C145.12,127.57,148.29,136.68,147.78,142Z"/></svg>