<svg id="Слой_1" data-name="Слой 1" xmlns="http://www.w3.org/2000/svg" xmlns:xlink="http://www.w3.org/1999/xlink" viewBox="0 0 224.37 224.37"><defs><style>.cls-1{fill:url(#linear-gradient);}.cls-2{fill:url(#linear-gradient-2);}.cls-3{fill:url(#linear-gradient-3);}.cls-4{fill:url(#linear-gradient-4);}.cls-5{fill:url(#linear-gradient-5);}.cls-6{fill:url(#linear-gradient-6);}.cls-7{fill:url(#linear-gradient-7);}.cls-8{fill:url(#linear-gradient-8);}</style><linearGradient id="linear-gradient" x1="16.9" y1="103.93" x2="177.64" y2="165.7" gradientUnits="userSpaceOnUse"><stop offset="0" stop-color="#e6007e"/><stop offset="1" stop-color="#36a9e1"/></linearGradient><linearGradient id="linear-gradient-2" x1="11.01" y1="119.25" x2="171.76" y2="181.02" xlink:href="#linear-gradient"/><linearGradient id="linear-gradient-3" x1="37.84" y1="49.44" x2="198.58" y2="111.21" xlink:href="#linear-gradient"/><linearGradient id="linear-gradient-4" x1="26.49" y1="78.97" x2="187.23" y2="140.74" xlink:href="#linear-gradient"/><linearGradient id="linear-gradient-5" x1="31.26" y1="66.55" x2="192" y2="128.32" xlink:href="#linear-gradient"/><linearGradient id="linear-gradient-6" x1="23.47" y1="86.82" x2="184.22" y2="148.58" xlink:href="#linear-gradient"/><linearGradient id="linear-gradient-7" x1="41.6" y1="39.64" x2="202.35" y2="101.41" xlink:href="#linear-gradient"/><linearGradient id="linear-gradient-8" x1="27.24" y1="77.02" x2="187.98" y2="138.78" xlink:href="#linear-gradient"/></defs><path class="cls-1" d="M79.72,118.14l-2.92-2.93,3.07-3.08-2.82-2.82L74,112.38l-3.08-3.07-2.83,2.82,3.08,3.08-3.08,3.08,2.83,2.83L74,118,76.89,121a18.47,18.47,0,1,0,2.83-2.82Zm21.75,24.57a14.43,14.43,0,1,1,0-20.41A14.46,14.46,0,0,1,101.47,142.71Z"/><polygon class="cls-2" points="47.2 115.88 43.2 115.88 43.2 148.89 65.43 148.89 65.43 144.89 47.2 144.89 47.2 115.88"/><path class="cls-3" d="M148.59,71.31c-5.33-.84-9.37,2.23-11.49,4.38-2.12-2.15-6.17-5.22-11.49-4.38a11.35,11.35,0,0,0-9.87,12.22l0,.45c.26,3.43.7,9.18,19.78,23.4l1.55,1.2,1.53-1.19c19.1-14.22,19.53-20,19.79-23.41l0-.45A11.36,11.36,0,0,0,148.59,71.31Zm5.89,11.84c0,.17,0,.34,0,.53-.19,2.53-.54,7.2-17.33,19.86C120.31,90.89,120,86.21,119.76,83.68c0-.19,0-.36,0-.53a7.4,7.4,0,0,1,6.51-7.88,6.22,6.22,0,0,1,1.13-.09c4.75,0,8,4.68,8.09,4.72l1.64,2.39,1.65-2.38c0-.06,3.87-5.49,9.23-4.64A7.4,7.4,0,0,1,154.48,83.15Z"/><polygon class="cls-4" points="46.74 84.16 64.81 109.11 64.81 72.98 60.81 72.98 60.81 96.77 42.74 71.81 42.74 105.94 46.74 105.94 46.74 84.16"/><path class="cls-5" d="M110.87,105.62,106,100.7a18.31,18.31,0,1,0-2.73,2.92l4.82,4.82h-4.11v4h10.94V101.5h-4ZM91.26,104A14.44,14.44,0,1,1,105.7,89.61,14.44,14.44,0,0,1,91.26,104Z"/><path class="cls-6" d="M148.59,114.21c-5.33-.84-9.37,2.22-11.49,4.38-2.12-2.16-6.17-5.22-11.49-4.38a11.34,11.34,0,0,0-9.87,12.21l0,.45c.26,3.44.7,9.19,19.78,23.4l1.55,1.2,1.53-1.18c19.1-14.23,19.53-20,19.79-23.42l0-.45A11.35,11.35,0,0,0,148.59,114.21ZM154.48,126c0,.17,0,.35,0,.53-.19,2.53-.54,7.21-17.33,19.86-16.79-12.64-17.15-17.32-17.34-19.86,0-.18,0-.36,0-.53a7.4,7.4,0,0,1,6.51-7.88,7.27,7.27,0,0,1,1.13-.09c4.75,0,8,4.68,8.09,4.73l1.64,2.39,1.65-2.39s3.87-5.48,9.23-4.64A7.41,7.41,0,0,1,154.48,126Z"/><path class="cls-7" d="M167.64,96.58h13.53L185,106h4.31L174.61,69.66,159.36,106h4.33Zm11.91-4H169.32l5.22-12.42Z"/><path class="cls-8" d="M174.61,112.56l-2.41,5.74-12.84,30.57h4.33l3.95-9.39h13.53l3.79,9.39h4.31L176.93,118.3Zm4.94,22.92H169.32l5.22-12.42Z"/></svg>